<mxfile host="app.diagrams.net" modified="2023-12-04T12:01:03.118Z" agent="Mozilla/5.0 (Windows NT 10.0; Win64; x64; rv:120.0) Gecko/20100101 Firefox/120.0" etag="3poVTWlnxVTrmvTIb7ub" version="22.1.5" type="device">
  <diagram name="Page-1" id="PKvESCWek7GxXXFBcv3v">
    <mxGraphModel dx="723" dy="399" grid="1" gridSize="10" guides="1" tooltips="1" connect="1" arrows="1" fold="1" page="1" pageScale="1" pageWidth="827" pageHeight="1169" math="0" shadow="0">
      <root>
        <mxCell id="0" />
        <mxCell id="1" parent="0" />
        <mxCell id="CePe3E0IzxOCKdLDW3mI-1" value="Panel" style="html=1;whiteSpace=wrap;" vertex="1" parent="1">
          <mxGeometry x="110" y="60" width="110" height="50" as="geometry" />
        </mxCell>
        <mxCell id="CePe3E0IzxOCKdLDW3mI-2" value="" style="endArrow=none;dashed=1;html=1;rounded=0;exitX=0.5;exitY=1;exitDx=0;exitDy=0;" edge="1" parent="1" source="CePe3E0IzxOCKdLDW3mI-17">
          <mxGeometry width="50" height="50" relative="1" as="geometry">
            <mxPoint x="160" y="110" as="sourcePoint" />
            <mxPoint x="160" y="874" as="targetPoint" />
          </mxGeometry>
        </mxCell>
        <mxCell id="CePe3E0IzxOCKdLDW3mI-3" value="" style="endArrow=classic;html=1;rounded=0;" edge="1" parent="1">
          <mxGeometry width="50" height="50" relative="1" as="geometry">
            <mxPoint x="160" y="160" as="sourcePoint" />
            <mxPoint x="360" y="160" as="targetPoint" />
          </mxGeometry>
        </mxCell>
        <mxCell id="CePe3E0IzxOCKdLDW3mI-4" value="add passenger" style="text;html=1;align=center;verticalAlign=middle;resizable=0;points=[];autosize=1;strokeColor=none;fillColor=none;" vertex="1" parent="1">
          <mxGeometry x="210" y="128" width="100" height="30" as="geometry" />
        </mxCell>
        <mxCell id="CePe3E0IzxOCKdLDW3mI-7" value="Flight" style="html=1;whiteSpace=wrap;" vertex="1" parent="1">
          <mxGeometry x="304" y="60" width="110" height="50" as="geometry" />
        </mxCell>
        <mxCell id="CePe3E0IzxOCKdLDW3mI-8" value="Passenger" style="html=1;whiteSpace=wrap;" vertex="1" parent="1">
          <mxGeometry x="230" y="170" width="60" height="20" as="geometry" />
        </mxCell>
        <mxCell id="CePe3E0IzxOCKdLDW3mI-9" value="" style="endArrow=none;dashed=1;html=1;rounded=0;exitX=0.5;exitY=1;exitDx=0;exitDy=0;" edge="1" parent="1">
          <mxGeometry width="50" height="50" relative="1" as="geometry">
            <mxPoint x="358.66" y="110" as="sourcePoint" />
            <mxPoint x="358.66" y="874" as="targetPoint" />
          </mxGeometry>
        </mxCell>
        <mxCell id="CePe3E0IzxOCKdLDW3mI-10" value="" style="endArrow=classic;html=1;rounded=0;" edge="1" parent="1">
          <mxGeometry width="50" height="50" relative="1" as="geometry">
            <mxPoint x="160" y="300" as="sourcePoint" />
            <mxPoint x="360" y="300" as="targetPoint" />
          </mxGeometry>
        </mxCell>
        <mxCell id="CePe3E0IzxOCKdLDW3mI-11" value="get passengers" style="text;html=1;align=center;verticalAlign=middle;resizable=0;points=[];autosize=1;strokeColor=none;fillColor=none;" vertex="1" parent="1">
          <mxGeometry x="210" y="270" width="100" height="30" as="geometry" />
        </mxCell>
        <mxCell id="CePe3E0IzxOCKdLDW3mI-16" value="return ArrayList&amp;lt;Passenger&amp;gt;" style="html=1;verticalAlign=bottom;endArrow=open;dashed=1;endSize=8;curved=0;rounded=0;" edge="1" parent="1" target="CePe3E0IzxOCKdLDW3mI-17">
          <mxGeometry relative="1" as="geometry">
            <mxPoint x="360" y="360" as="sourcePoint" />
            <mxPoint x="160" y="360" as="targetPoint" />
          </mxGeometry>
        </mxCell>
        <mxCell id="CePe3E0IzxOCKdLDW3mI-18" value="" style="html=1;points=[[0,0,0,0,5],[0,1,0,0,-5],[1,0,0,0,5],[1,1,0,0,-5]];perimeter=orthogonalPerimeter;outlineConnect=0;targetShapes=umlLifeline;portConstraint=eastwest;newEdgeStyle={&quot;curved&quot;:0,&quot;rounded&quot;:0};" vertex="1" parent="1">
          <mxGeometry x="354" y="290" width="10" height="80" as="geometry" />
        </mxCell>
        <mxCell id="CePe3E0IzxOCKdLDW3mI-19" value="" style="endArrow=none;dashed=1;html=1;rounded=0;exitX=0.5;exitY=1;exitDx=0;exitDy=0;" edge="1" parent="1" target="CePe3E0IzxOCKdLDW3mI-17">
          <mxGeometry width="50" height="50" relative="1" as="geometry">
            <mxPoint x="160" y="110" as="sourcePoint" />
            <mxPoint x="160" y="874" as="targetPoint" />
          </mxGeometry>
        </mxCell>
        <mxCell id="CePe3E0IzxOCKdLDW3mI-17" value="" style="html=1;points=[[0,0,0,0,5],[0,1,0,0,-5],[1,0,0,0,5],[1,1,0,0,-5]];perimeter=orthogonalPerimeter;outlineConnect=0;targetShapes=umlLifeline;portConstraint=eastwest;newEdgeStyle={&quot;curved&quot;:0,&quot;rounded&quot;:0};" vertex="1" parent="1">
          <mxGeometry x="155" y="290" width="10" height="80" as="geometry" />
        </mxCell>
      </root>
    </mxGraphModel>
  </diagram>
</mxfile>
